/* XPM */
static char * corner_xpm[] = {
"32 32 92 2",
"  	c None",
". 	c #FFFF99",
"+ 	c #FFFFA3",
"@ 	c #FFFFA4",
"# 	c #FFFF9F",
"$ 	c #FFFF95",
"% 	c #FFFF8E",
"& 	c #FFFF86",
"* 	c #FFFF73",
"= 	c #FFFF5A",
"- 	c #FFFF39",
"; 	c #FFFF0D",
"> 	c #FFFF8B",
", 	c #FFFF98",
"' 	c #FFFF9C",
") 	c #FFFF97",
"! 	c #FFFF82",
"~ 	c #FFFF76",
"{ 	c #FFFF5B",
"] 	c #FFFF37",
"^ 	c #DCDC00",
"/ 	c #FFFF77",
"( 	c #FFFF85",
"_ 	c #FFFF6C",
": 	c #FFFF5D",
"< 	c #FFFF3A",
"[ 	c #FFFF10",
"} 	c #E2E200",
"| 	c #B1B100",
"1 	c #FFFF61",
"2 	c #FFFF6B",
"3 	c #FFFF6F",
"4 	c #FFFF69",
"5 	c #FFFF57",
"6 	c #FFFF4A",
"7 	c #FFFF12",
"8 	c #E6E600",
"9 	c #B8B800",
"0 	c #8D8D00",
"a 	c #FFFF49",
"b 	c #FFFF4C",
"c 	c #FFFF40",
"d 	c #FFFF2A",
"e 	c #FFFF1B",
"f 	c #FFFF0A",
"g 	c #B9B900",
"h 	c #929200",
"i 	c #6E6E00",
"j 	c #FFFF3D",
"k 	c #FFFF3C",
"l 	c #FFFF35",
"m 	c #FFFF27",
"n 	c #FFFF0F",
"o 	c #FFFF00",
"p 	c #EEEE00",
"q 	c #C8C800",
"r 	c #A2A200",
"s 	c #7F7F00",
"t 	c #606000",
"u 	c #FFFF30",
"v 	c #FFFF29",
"w 	c #FFFF1E",
"x 	c #FFFF0C",
"y 	c #F2F200",
"z 	c #D1D100",
"A 	c #AFAF00",
"B 	c #8C8C00",
"C 	c #565600",
"D 	c #FFFF14",
"E 	c #FFFF02",
"F 	c #ECEC00",
"G 	c #D2D200",
"H 	c #B5B500",
"I 	c #A5A500",
"J 	c #989800",
"K 	c #7B7B00",
"L 	c #626200",
"M 	c #505000",
"N 	c #414100",
"O 	c #F5F500",
"P 	c #D7D700",
"Q 	c #B6B600",
"R 	c #979700",
"S 	c #7A7A00",
"T 	c #6B6B00",
"U 	c #616100",
"V 	c #4C4C00",
"W 	c #A7A700",
"X 	c #818100",
"Y 	c #454500",
"Z 	c #757500",
"` 	c #4D4D00",
". + @ # $ % % % % % % % % % % % % % % % % % % % % % % & * = - ; ",
"> , ' ) > ! ! ! ! ! ! ! ! ! ! ! ! ! ! ! ! ! ! ! ! ! ! ~ { ] ; ^ ",
"/ ( > & / _ _ _ _ _ _ _ _ _ _ _ _ _ _ _ _ _ _ _ _ _ _ : < [ } | ",
"1 2 3 4 5 6 6 6 6 6 6 6 6 6 6 6 6 6 6 6 6 6 6 6 6 6 6 - 7 8 9 0 ",
"a b 6 c d e e e e e e e e e e e e e e e e e e e e e e f } g h i ",
"j k l m n o o o o o o o o o o o o o o o o o o o o o o p q r s t ",
"j k l m n o o o o o o o o o o o o o o o o o o o o o o p q r s t ",
"j k l m n o o o o o o o o o o o o o o o o o o o o o o p q r s t ",
"j k l m n o o o o o o o o o o o o o o o o o o o o o o p q r s t ",
"j k l m n o o o o o o o o o o o o o o o o o o o o o o p q r s t ",
"j k l m n o o o o o o o o o o o o o o o o o o o o o o p q r s t ",
"j k l m n o o o o o o o o o o o o o o o o o o o o o o p q r s t ",
"j k l m n o o o o o o o o o o o o o o o o o o o o o o p q r s t ",
"j k l m n o o o o o o o o o o o o o o o o o o o o o o p q r s t ",
"j k l m n o o o o o o o o o o o o o o o o o o o o o o p q r s t ",
"j k l m n o o o o o o o o o o o o o o o o o o o o o o p q r s t ",
"j k l m n o o o o o o o o o o o o o o o o o o o o o o p q r s t ",
"j k l m n o o o o o o o o o o o o o o o o o o o o o o p q r s t ",
"j k l m n o o o o o o o o o o o o o o o o o o o o o o p q r s t ",
"j k l m n o o o o o o o o o o o o o o o o o o o o o o p q r s t ",
"j k l m n o o o o o o o o o o o o o o o o o o o o o o p q r s t ",
"j k l m n o o o o o o o o o o o o o o o o o o o o o o p q r s t ",
"j k l m n o o o o o o o o o o o o o o o o o o o o o o p q r s t ",
"j k l m n o o o o o o o o o o o o o o o o o o o o o o p q r s t ",
"j k l m n o o o o o o o o o o o o o o o o o o o o o o p q r s t ",
"j k l m n o o o o o o o o o o o o o o o o o o o o o o p q r s t ",
"j k l m n o o o o o o o o o o o o o o o o o o o o o o p q r s t ",
"u v w x y } } } } } } } } } } } } } } } } } } } } } } z A B i C ",
"D E F G H I I I I I I I I I I I I I I I I I I I I I I J K L M N ",
"O P Q R S T T T T T T T T T T T T T T T T T T T T T T U V N N N ",
"z W X t Y N N N N N N N N N N N N N N N N N N N N N N N N N N N ",
"W Z ` N N N N N N N N N N N N N N N N N N N N N N N N N N N N N "};
