/* XPM */
static char * miss_corner_xpm[] = {
"32 32 58 1",
" 	c None",
".	c #FFFF7F",
"+	c #FFFF5E",
"@	c #FFFF3D",
"#	c #FFFF20",
"$	c #FFFF0A",
"%	c #FFFF00",
"&	c #EEEE00",
"*	c #C8C800",
"=	c #A2A200",
"-	c #7F7F00",
";	c #FFFF8E",
">	c #FFFF65",
",	c #FFFF48",
"'	c #FFFF2C",
")	c #FFFF16",
"!	c #FFFF07",
"~	c #FFFF82",
"{	c #FFFF47",
"]	c #FFFF31",
"^	c #FFFF1C",
"/	c #FFFF0D",
"(	c #FFFF04",
"_	c #FFFF6C",
":	c #FFFF29",
"<	c #FFFF1B",
"[	c #FFFF0F",
"}	c #FFFF01",
"|	c #FFFF4A",
"1	c #FFFF08",
"2	c #F5F500",
"3	c #FAFA00",
"4	c #FDFD00",
"5	c #FEFE00",
"6	c #FBFB00",
"7	c #F7F700",
"8	c #F2F200",
"9	c #E3E300",
"0	c #EFEF00",
"a	c #F8F800",
"b	c #D3D300",
"c	c #D4D400",
"d	c #E9E900",
"e	c #F1F100",
"f	c #E1E100",
"g	c #CBCB00",
"h	c #ADAD00",
"i	c #C9C900",
"j	c #E5E500",
"k	c #E8E800",
"l	c #CECE00",
"m	c #838300",
"n	c #C2C200",
"o	c #FFFF03",
"p	c #DCDC00",
"q	c #B8B800",
"r	c #8A8A00",
"s	c #565600",
".+@#$%%%%%%%%%%%%%%%%%%%%%%&*=-;",
">,')!%%%%%%%%%%%%%%%%%%%%%%&*=~~",
"{]^/(%%%%%%%%%%%%%%%%%%%%%%&*___",
":<[!}%%%%%%%%%%%%%%%%%%%%%%&||||",
"/1(}%%%%%%%%%%%%%%%%%%%%%%%%<<<<",
"%%%%%%%%%%%%%%%%%%%%%%%%%%%%%%%%",
"%%%%%%%%%%%%%%%%%%%%%%%%%%%%%%%%",
"%%%%%%%%%%%%%%%%%%%%%%%%%%%%%%%%",
"%%%%%%%%%%%%%%%%%%%%%%%%%%%%%%%%",
"%%%%%%%%%%%%%%%%%%%%%%%%%%%%%%%%",
"%%%%%%%%%%%%%%%%%%%%%%%%%%%%%%%%",
"%%%%%%%%%%%%%%%%%%%%%%%%%%%%%%%%",
"%%%%%%%%%%%%%%%%%%%%%%%%%%%%%%%%",
"%%%%%%%%%%%%%%%%%%%%%%%%%%%%%%%%",
"%%%%%%%%%%%%%%%%%%%%%%%%%%%%%%%%",
"%%%%%%%%%%%%%%%%%%%%%%%%%%%%%%%%",
"%%%%%%%%%%%%%<<%%%%%%%%%%%%%%%%%",
"%%%%%%%%%%%%%%%%%%%%%%%%%%%%%%%%",
"%%%%%%%%%%%%%%%%%%%%%%%%%%%%%%%%",
"%%%%%%%%%%%%%%%%%%%%%%%%%%%%%%%%",
"%%%%%%%%%%%%%%%%%%%%%%%%%%%%%%%%",
"%%%%%%%%%%%%%%%%%%%%%%%%%%%%%%%%",
"%%%%%%%%%%%%%%%%%%%%%%%%%%%%%%%%",
"%%%%%%%%%%%%%%%%%%%%%%%%%%%%%%%%",
"%%%%%%%%%%%%%%%%%%%%%%%%%%%%%%%%",
"%%%%%%%%%%%%%%%%%%%%%%%%%%%%%%%%",
"%%%%%%%%%%%%%%%%%%%%%%%%%%%%%%%%",
"2345%%%%%%%%%%%%%%%%%%%%%%%%5678",
"90a5%%%%%%%%%%%%%%%%%%%%%%%5a09b",
"cd75%%%%%%%%%%%%%%%%%%%%%%%6efgh",
"ija}}%%%%%%%%%%%%%%%%%%%%%%aklhm",
"n93(o%%%%%%%%%%%%%%%%%%%%%%2pqrs"};
