/* XPM */
static char * ver_edge_xpm[] = {
"32 32 12 1",
" 	c None",
".	c #FFFF3D",
"+	c #FFFF3C",
"@	c #FFFF35",
"#	c #FFFF27",
"$	c #FFFF0F",
"%	c #FFFF00",
"&	c #EEEE00",
"*	c #C8C800",
"=	c #A2A200",
"-	c #7F7F00",
";	c #606000",
".+@#$%%%%%%%%%%%%%%%%%%%%%%&*=-;",
".+@#$%%%%%%%%%%%%%%%%%%%%%%&*=-;",
".+@#$%%%%%%%%%%%%%%%%%%%%%%&*=-;",
".+@#$%%%%%%%%%%%%%%%%%%%%%%&*=-;",
".+@#$%%%%%%%%%%%%%%%%%%%%%%&*=-;",
".+@#$%%%%%%%%%%%%%%%%%%%%%%&*=-;",
".+@#$%%%%%%%%%%%%%%%%%%%%%%&*=-;",
".+@#$%%%%%%%%%%%%%%%%%%%%%%&*=-;",
".+@#$%%%%%%%%%%%%%%%%%%%%%%&*=-;",
".+@#$%%%%%%%%%%%%%%%%%%%%%%&*=-;",
".+@#$%%%%%%%%%%%%%%%%%%%%%%&*=-;",
".+@#$%%%%%%%%%%%%%%%%%%%%%%&*=-;",
".+@#$%%%%%%%%%%%%%%%%%%%%%%&*=-;",
".+@#$%%%%%%%%%%%%%%%%%%%%%%&*=-;",
".+@#$%%%%%%%%%%%%%%%%%%%%%%&*=-;",
".+@#$%%%%%%%%%%%%%%%%%%%%%%&*=-;",
".+@#$%%%%%%%%%%%%%%%%%%%%%%&*=-;",
".+@#$%%%%%%%%%%%%%%%%%%%%%%&*=-;",
".+@#$%%%%%%%%%%%%%%%%%%%%%%&*=-;",
".+@#$%%%%%%%%%%%%%%%%%%%%%%&*=-;",
".+@#$%%%%%%%%%%%%%%%%%%%%%%&*=-;",
".+@#$%%%%%%%%%%%%%%%%%%%%%%&*=-;",
".+@#$%%%%%%%%%%%%%%%%%%%%%%&*=-;",
".+@#$%%%%%%%%%%%%%%%%%%%%%%&*=-;",
".+@#$%%%%%%%%%%%%%%%%%%%%%%&*=-;",
".+@#$%%%%%%%%%%%%%%%%%%%%%%&*=-;",
".+@#$%%%%%%%%%%%%%%%%%%%%%%&*=-;",
".+@#$%%%%%%%%%%%%%%%%%%%%%%&*=-;",
".+@#$%%%%%%%%%%%%%%%%%%%%%%&*=-;",
".+@#$%%%%%%%%%%%%%%%%%%%%%%&*=-;",
".+@#$%%%%%%%%%%%%%%%%%%%%%%&*=-;",
".+@#$%%%%%%%%%%%%%%%%%%%%%%&*=-;"};
