/* XPM */
static char * corner_xpm[] = {
"32 32 29 1",
" 	c None",
".	c #900000",
"+	c #8C0000",
"@	c #830000",
"#	c #A20000",
"$	c #DA0000",
"%	c #AC0000",
"&	c #9E0000",
"*	c #E00000",
"=	c #FF1818",
"-	c #B20000",
";	c #FF3131",
">	c #BF0000",
",	c #C20000",
"'	c #EC0000",
")	c #FF0000",
"!	c #FF1D1D",
"~	c #D10000",
"{	c #FF0D0D",
"]	c #FF3636",
"^	c #FF3A3A",
"/	c #FF3D3D",
"(	c #FF1010",
"_	c #FF4848",
":	c #FF5F5F",
"<	c #FF5E5E",
"[	c #FF5252",
"}	c #FF1111",
"|	c #FF5B5B",
".+@@@@@@@@@@@@@@@@@@@@@@@@@@@@#$",
"%&+@@@@@@@@@@@@@@@@@@@@@@@@@@#*=",
"-%&+@@@@@@@@@@@@@@@@@@@@@@@@#*=;",
"--%&+@@@@@@@@@@@@@@@@@@@@@@#*=;;",
"---%&+@@@@@@@@@@@@@@@@@@@@#*=;;;",
"----%>,,,,,,,,,,,,,,,,,,,,'=;;;;",
"-----$))))))))))))))))))))!;;;;;",
"-----$))))))))))))))))))))!;;;;;",
"-----$))))))))))))))))))))!;;;;;",
"-----$))))))))))))))))))))!;;;;;",
"-----$))))))))))))))))))))!;;;;;",
"-----$))))))))))))))))))))!;;;;;",
"-----$))))))))))))))))))))!;;;;;",
"-----$))))))))))))))))))))!;;;;;",
"-----$))))))))))))))))))))!;;;;;",
"-----$))))))))))))))))))))!;;;;;",
"-----$))))))))))))))))))))!;;;;;",
"-----$))))))))))))))))))))!;;;;;",
"-----$))))))))))))))))))))!;;;;;",
"-----$))))))))))))))))))))!;;;;;",
"-----$))))))))))))))))))))!;;;;;",
"-----$))))))))))))))))))))!;;;;;",
"-----$))))))))))))))))))))!;;;;;",
"-----$))))))))))))))))))))!;;;;;",
"-----$))))))))))))))))))))!;;;;;",
"-----$))))))))))))))))))))!;;;;;",
"----~{]]]]]]]]]]]]]]]]]]]]^/;;;;",
"---~(_::::::::::::::::::::<[/;;;",
"--~(_::::::::::::::::::::::<[/;;",
"-~(_::::::::::::::::::::::::<[/;",
"~(_::::::::::::::::::::::::::<[/",
"}_::::::::::::::::::::::::::::<|"};
