/* XPM */
static char * miss_corner_xpm[] = {
"32 32 97 2",
"  	c None",
". 	c #7C0000",
"+ 	c #880000",
"@ 	c #920000",
"# 	c #960000",
"$ 	c #AA0000",
"% 	c #DA0000",
"& 	c #FF0000",
"* 	c #FF0D0D",
"= 	c #FF1B1B",
"- 	c #FF1111",
"; 	c #FF0909",
"> 	c #F70000",
", 	c #D20000",
"' 	c #740000",
") 	c #770000",
"! 	c #800000",
"~ 	c #890000",
"{ 	c #AD0000",
"] 	c #E20000",
"^ 	c #FF0101",
"/ 	c #FD0000",
"( 	c #EB0000",
"_ 	c #D00000",
": 	c #AE0000",
"< 	c #750000",
"[ 	c #720000",
"} 	c #8A0000",
"| 	c #BA0000",
"1 	c #ED0000",
"2 	c #FC0000",
"3 	c #F90000",
"4 	c #E90000",
"5 	c #B60000",
"6 	c #9E0000",
"7 	c #730000",
"8 	c #A80000",
"9 	c #DB0000",
"0 	c #FE0000",
"a 	c #F80000",
"b 	c #E30000",
"c 	c #C30000",
"d 	c #A70000",
"e 	c #970000",
"f 	c #870000",
"g 	c #B10000",
"h 	c #D90000",
"i 	c #F50000",
"j 	c #F10000",
"k 	c #D70000",
"l 	c #B70000",
"m 	c #9B0000",
"n 	c #CB0000",
"o 	c #EC0000",
"p 	c #EA0000",
"q 	c #D50000",
"r 	c #FF2525",
"s 	c #FF1313",
"t 	c #FF0606",
"u 	c #FF0303",
"v 	c #FF1212",
"w 	c #FF2222",
"x 	c #FF3030",
"y 	c #FF4C4C",
"z 	c #FF3737",
"A 	c #FF1E1E",
"B 	c #FF0C0C",
"C 	c #FF0202",
"D 	c #FF0A0A",
"E 	c #FF2424",
"F 	c #FF4444",
"G 	c #FF5858",
"H 	c #FF6161",
"I 	c #FF4B4B",
"J 	c #FF3B3B",
"K 	c #FF0F0F",
"L 	c #FF0404",
"M 	c #FF6767",
"N 	c #FF7070",
"O 	c #FF6D6D",
"P 	c #FF2B2B",
"Q 	c #FF5D5D",
"R 	c #FF6C6C",
"S 	c #FF3535",
"T 	c #E50000",
"U 	c #FB0000",
"V 	c #FF1C1C",
"W 	c #FF4141",
"X 	c #FF6262",
"Y 	c #FF6F6F",
"Z 	c #D10000",
"` 	c #CC0000",
" .	c #FF2020",
"..	c #FF3E3E",
"+.	c #FF5151",
"@.	c #FF5B5B",
"#.	c #FF6969",
". + @ # $ % & & & & & & & & & & & & & & & & & & & & * = - ; > , ",
"' ) ! ~ { ] & & & & & & & & & & & & & & & & & & & & ^ ; / ( _ : ",
"< [ ) } | 1 & & & & & & & & & & & & & & & & & & & & 2 3 4 _ 5 6 ",
"< 7 ! 8 9 2 & & & & & & & & & & & & & & & & & & & & 0 a b c d e ",
"f e g h i & & & & & & & & & & & & & & & & & & & & & & / j k l m ",
"n 9 o 2 & & & & & & & & & & & & & & & & & & & & & & & & 0 a p q ",
"& & & & & & & & & & & & & & & & & & & & & & & & & & & & & & & & ",
"& & & & & & & & & & & & & & & & & & & & & & & & & & & & & & & & ",
"& & & & & & & & & & & & & & & & & & & & & & & & & & & & & & & & ",
"& & & & & & & & & & & & & & & & & & & & & & & & & & & & & & & & ",
"& & & & & & & & & & & & & & & & & & & & & & & & & & & & & & & & ",
"& & & & & & & & & & & & & & & & & & & & & & & & & & & & & & & & ",
"& & & & & & & & & & & & & & & & & & & & & & & & & & & & & & & & ",
"& & & & & & & & & & & & & & & & & & & & & & & & & & & & & & & & ",
"& & & & & & & & & & & & & & & & & & & & & & & & & & & & & & & & ",
"& & & & & & & & & & & & & & & & & & & & & & & & & & & & & & & & ",
"& & & & & & & & & & & & & & & & & & & & & & & & & & & & & & & & ",
"& & & & & & & & & & & & & & & & & & & & & & & & & & & & & & & & ",
"& & & & & & & & & & & & & & & & & & & & & & & & & & & & & & & & ",
"& & & & & & & & & & & & & & & & & & & & & & & & & & & & & & & & ",
"& & & & & & & & & & & & & & & & & & & & & & & & & & & & & & & & ",
"& & & & & & & & & & & & & & & & & & & & & & & & & & & & & & & & ",
"& & & & & & & & & & & & & & & & & & & & & & & & & & & & & & & & ",
"& & & & & & & & & & & & & & & & & & & & & & & & & & & & & & & & ",
"& & & & & & & & & & & & & & & & & & & & & & & & & & & & & & & & ",
"& & & & & & & & & & & & & & & & & & & & & & & & & & & & & & & & ",
"r s t ^ & & & & & & & & & & & & & & & & & & & & & & & & u v w x ",
"y z A B C & & & & & & & & & & & & & & & & & & & & & & D E F G H ",
"I J E K L ^ & & & & & & & & & & & & & & & & & & & & u w I M N O ",
"F P v 0 / C & & & & & & & & & & & & & & & & & & & & - J Q R N O ",
"S v > T T U & & & & & & & & & & & & & & & & & & & & V W G X R Y ",
"v o h Z ` o & & & & & & & & & & & & & & & & & & & &  ...y +.@.#."};
