/* XPM */
static char * ver_edge_xpm[] = {
"32 32 6 1",
" 	c None",
".	c #B20000",
"+	c #DA0000",
"@	c #FF0000",
"#	c #FF1D1D",
"$	c #FF3131",
".....+@@@@@@@@@@@@@@@@@@@@#$$$$$",
".....+@@@@@@@@@@@@@@@@@@@@#$$$$$",
".....+@@@@@@@@@@@@@@@@@@@@#$$$$$",
".....+@@@@@@@@@@@@@@@@@@@@#$$$$$",
".....+@@@@@@@@@@@@@@@@@@@@#$$$$$",
".....+@@@@@@@@@@@@@@@@@@@@#$$$$$",
".....+@@@@@@@@@@@@@@@@@@@@#$$$$$",
".....+@@@@@@@@@@@@@@@@@@@@#$$$$$",
".....+@@@@@@@@@@@@@@@@@@@@#$$$$$",
".....+@@@@@@@@@@@@@@@@@@@@#$$$$$",
".....+@@@@@@@@@@@@@@@@@@@@#$$$$$",
".....+@@@@@@@@@@@@@@@@@@@@#$$$$$",
".....+@@@@@@@@@@@@@@@@@@@@#$$$$$",
".....+@@@@@@@@@@@@@@@@@@@@#$$$$$",
".....+@@@@@@@@@@@@@@@@@@@@#$$$$$",
".....+@@@@@@@@@@@@@@@@@@@@#$$$$$",
".....+@@@@@@@@@@@@@@@@@@@@#$$$$$",
".....+@@@@@@@@@@@@@@@@@@@@#$$$$$",
".....+@@@@@@@@@@@@@@@@@@@@#$$$$$",
".....+@@@@@@@@@@@@@@@@@@@@#$$$$$",
".....+@@@@@@@@@@@@@@@@@@@@#$$$$$",
".....+@@@@@@@@@@@@@@@@@@@@#$$$$$",
".....+@@@@@@@@@@@@@@@@@@@@#$$$$$",
".....+@@@@@@@@@@@@@@@@@@@@#$$$$$",
".....+@@@@@@@@@@@@@@@@@@@@#$$$$$",
".....+@@@@@@@@@@@@@@@@@@@@#$$$$$",
".....+@@@@@@@@@@@@@@@@@@@@#$$$$$",
".....+@@@@@@@@@@@@@@@@@@@@#$$$$$",
".....+@@@@@@@@@@@@@@@@@@@@#$$$$$",
".....+@@@@@@@@@@@@@@@@@@@@#$$$$$",
".....+@@@@@@@@@@@@@@@@@@@@#$$$$$",
".....+@@@@@@@@@@@@@@@@@@@@#$$$$$"};
