/* XPM */
static char * corner_xpm[] = {
"32 32 88 1",
" 	c None",
".	c #E3E3E3",
"+	c #E6E6E6",
"@	c #E5E5E5",
"#	c #E2E2E2",
"$	c #E0E0E0",
"%	c #DEDEDE",
"&	c #D9D9D9",
"*	c #D2D2D2",
"=	c #C9C9C9",
"-	c #BEBEBE",
";	c #E4E4E4",
">	c #DDDDDD",
",	c #DADADA",
"'	c #D3D3D3",
")	c #A0A0A0",
"!	c #D7D7D7",
"~	c #CACACA",
"{	c #A5A5A5",
"]	c #818181",
"^	c #D4D4D4",
"/	c #D8D8D8",
"(	c #D6D6D6",
"_	c #CECECE",
":	c #BFBFBF",
"<	c #A8A8A8",
"[	c #868686",
"}	c #676767",
"|	c #CFCFCF",
"1	c #CBCBCB",
"2	c #C5C5C5",
"3	c #C1C1C1",
"4	c #BDBDBD",
"5	c #878787",
"6	c #6A6A6A",
"7	c #505050",
"8	c #C8C8C8",
"9	c #BABABA",
"0	c #AEAEAE",
"a	c #929292",
"b	c #767676",
"c	c #5D5D5D",
"d	c #464646",
"e	c #C3C3C3",
"f	c #CDCDCD",
"g	c #D1D1D1",
"h	c #969696",
"i	c #828282",
"j	c #AAAAAA",
"k	c #858585",
"l	c #626262",
"m	c #616161",
"n	c #AFAFAF",
"o	c #898989",
"p	c #666666",
"q	c #484848",
"r	c #343434",
"s	c #B4B4B4",
"t	c #8D8D8D",
"u	c #535353",
"v	c #747474",
"w	c #ACACAC",
"x	c #C7C7C7",
"y	c #C2C2C2",
"z	c #B1B1B1",
"A	c #989898",
"B	c #808080",
"C	c #3F3F3F",
"D	c #BBBBBB",
"E	c #999999",
"F	c #848484",
"G	c #787878",
"H	c #6F6F6F",
"I	c #5A5A5A",
"J	c #474747",
"K	c #3A3A3A",
"L	c #2F2F2F",
"M	c #B3B3B3",
"N	c #9D9D9D",
"O	c #6E6E6E",
"P	c #595959",
"Q	c #4E4E4E",
"R	c #373737",
"S	c #7A7A7A",
"T	c #5E5E5E",
"U	c #323232",
"V	c #555555",
"W	c #383838",
".++@#$$$$$$$$$$$$$$$$$$$$$$%&*=-",
"$.;.$>>>>>>>>>>>>>>>>>>>>>>,'=-)",
",%$%,!!!!!!!!!!!!!!!!!!!!!!'~-{]",
"^!/(*______________________=:<[}",
"_|_1233333333333333333333334{567",
"1~82-99999999999999999999990abcd",
"1~82-9-|,*e999999999-|,*e990abcd",
"1~82-91%,|:0999999991%,|:090abcd",
"1~82-9fg1-hi99999999fg1-hi90abcd",
"1~82-93-jklm999999993-jklm90abcd",
"1~82-9nopqrb99999999nopqrb90abcd",
"1~82-9studvw99999999studvw90abcd",
"1~82-99999999999999999999990abcd",
"1~82-99999999999999999999990abcd",
"1~82-99999999999999999999990abcd",
"1~82-99999999999999999999990abcd",
"1~82-99999999999999999999990abcd",
"1~82-99999999999999999999990abcd",
"1~82-99999999999999999999990abcd",
"1~82-99999999999999999999990abcd",
"1~82-9-|,*e999999999-|,*e990abcd",
"1~82-91%,|:0999999991%,|:090abcd",
"1~82-9fg1-hi99999999fg1-hi90abcd",
"1~82-93-jklm999999993-jklm90abcd",
"1~82-9nopqrb99999999nopqrb90abcd",
"1~82-9studvw99999999studvw90abcd",
"1~82-99999999999999999999990abcd",
"x2y4z{{{{{{{{{{{{{{{{{{{{{{ABp7C",
":DwEFGGGGGGGGGGGGGGGGGGGGGGHIJKL",
"MNkOPQQQQQQQQQQQQQQQQQQQQQQJRLLL",
"ASTdULLLLLLLLLLLLLLLLLLLLLLLLLLL",
"SVWLLLLLLLLLLLLLLLLLLLLLLLLLLLLL"};
