/* XPM */
static char * hor_edge_xpm[] = {
"32 32 40 1",
" 	c None",
".	c #E0E0E0",
"+	c #DDDDDD",
"@	c #D7D7D7",
"#	c #CECECE",
"$	c #C1C1C1",
"%	c #BABABA",
"&	c #BEBEBE",
"*	c #CFCFCF",
"=	c #DADADA",
"-	c #D2D2D2",
";	c #C3C3C3",
">	c #CBCBCB",
",	c #DEDEDE",
"'	c #BFBFBF",
")	c #AEAEAE",
"!	c #CDCDCD",
"~	c #D1D1D1",
"{	c #969696",
"]	c #828282",
"^	c #AAAAAA",
"/	c #858585",
"(	c #626262",
"_	c #616161",
":	c #AFAFAF",
"<	c #898989",
"[	c #666666",
"}	c #484848",
"|	c #343434",
"1	c #767676",
"2	c #B4B4B4",
"3	c #8D8D8D",
"4	c #535353",
"5	c #464646",
"6	c #747474",
"7	c #ACACAC",
"8	c #A5A5A5",
"9	c #787878",
"0	c #4E4E4E",
"a	c #2F2F2F",
"................................",
"++++++++++++++++++++++++++++++++",
"@@@@@@@@@@@@@@@@@@@@@@@@@@@@@@@@",
"################################",
"$$$$$$$$$$$$$$$$$$$$$$$$$$$$$$$$",
"%%%%%%%%%%%%%%%%%%%%%%%%%%%%%%%%",
"%%%%%%&*=-;%%%%%%%%%&*=-;%%%%%%%",
"%%%%%%>,=*')%%%%%%%%>,=*')%%%%%%",
"%%%%%%!~>&{]%%%%%%%%!~>&{]%%%%%%",
"%%%%%%$&^/(_%%%%%%%%$&^/(_%%%%%%",
"%%%%%%:<[}|1%%%%%%%%:<[}|1%%%%%%",
"%%%%%%234567%%%%%%%%234567%%%%%%",
"%%%%%%%%%%%%%%%%%%%%%%%%%%%%%%%%",
"%%%%%%%%%%%%%%%%%%%%%%%%%%%%%%%%",
"%%%%%%%%%%%%%%%%%%%%%%%%%%%%%%%%",
"%%%%%%%%%%%%%%%%%%%%%%%%%%%%%%%%",
"%%%%%%%%%%%%%%%%%%%%%%%%%%%%%%%%",
"%%%%%%%%%%%%%%%%%%%%%%%%%%%%%%%%",
"%%%%%%%%%%%%%%%%%%%%%%%%%%%%%%%%",
"%%%%%%%%%%%%%%%%%%%%%%%%%%%%%%%%",
"%%%%%%&*=-;%%%%%%%%%&*=-;%%%%%%%",
"%%%%%%>,=*')%%%%%%%%>,=*')%%%%%%",
"%%%%%%!~>&{]%%%%%%%%!~>&{]%%%%%%",
"%%%%%%$&^/(_%%%%%%%%$&^/(_%%%%%%",
"%%%%%%:<[}|1%%%%%%%%:<[}|1%%%%%%",
"%%%%%%234567%%%%%%%%234567%%%%%%",
"%%%%%%%%%%%%%%%%%%%%%%%%%%%%%%%%",
"88888888888888888888888888888888",
"99999999999999999999999999999999",
"00000000000000000000000000000000",
"aaaaaaaaaaaaaaaaaaaaaaaaaaaaaaaa",
"aaaaaaaaaaaaaaaaaaaaaaaaaaaaaaaa"};
