/* XPM */
static char * miss_corner_xpm[] = {
"32 32 66 1",
" 	c None",
".	c #DCDCDC",
"+	c #D3D3D3",
"@	c #CBCBCB",
"#	c #C3C3C3",
"$	c #BDBDBD",
"%	c #BABABA",
"&	c #B8B8B8",
"*	c #B4B4B4",
"=	c #B7B7B7",
"-	c #BBBBBB",
";	c #BFBFBF",
">	c #D5D5D5",
",	c #CDCDCD",
"'	c #C6C6C6",
")	c #C0C0C0",
"!	c #BCBCBC",
"~	c #B9B9B9",
"{	c #BEBEBE",
"]	c #C2C2C2",
"^	c #C7C7C7",
"/	c #C5C5C5",
"(	c #C1C1C1",
"_	c #CFCFCF",
":	c #DADADA",
"<	c #D2D2D2",
"[	c #DEDEDE",
"}	c #AEAEAE",
"|	c #D1D1D1",
"1	c #969696",
"2	c #828282",
"3	c #AAAAAA",
"4	c #858585",
"5	c #626262",
"6	c #616161",
"7	c #AFAFAF",
"8	c #898989",
"9	c #666666",
"0	c #484848",
"a	c #343434",
"b	c #767676",
"c	c #8D8D8D",
"d	c #535353",
"e	c #464646",
"f	c #747474",
"g	c #ACACAC",
"h	c #B3B3B3",
"i	c #B6B6B6",
"j	c #B1B1B1",
"k	c #A6A6A6",
"l	c #B5B5B5",
"m	c #9A9A9A",
"n	c #9B9B9B",
"o	c #B0B0B0",
"p	c #A4A4A4",
"q	c #949494",
"r	c #7E7E7E",
"s	c #939393",
"t	c #A7A7A7",
"u	c #A9A9A9",
"v	c #606060",
"w	c #8E8E8E",
"x	c #A0A0A0",
"y	c #868686",
"z	c #656565",
"A	c #3F3F3F",
".+@#$%%%%%%%%%%%%%%%%%%%%%%&*=-;",
">,')!%%%%%%%%%%%%%%%%%%%%%%~~-{]",
",^]{-%%%%%%%%%%%%%%%%%%%%%%%%!;#",
"/({!%%%%%%%%%%%%%%%%%%%%%%%%%!{(",
"{!-%%%%%%%%%%%%%%%%%%%%%%%%%%--!",
"%%%%%%%%%%%%%%%%%%%%%%%%%%%%%%%%",
"%%%%%%{_:<#%%%%%%%%%{_:<#%%%%%%%",
"%%%%%%@[:_;}%%%%%%%%@[:_;}%%%%%%",
"%%%%%%,|@{12%%%%%%%%,|@{12%%%%%%",
"%%%%%%({3456%%%%%%%%({3456%%%%%%",
"%%%%%%7890ab%%%%%%%%7890ab%%%%%%",
"%%%%%%*cdefg%%%%%%%%*cdefg%%%%%%",
"%%%%%%%%%%%%%%%%%%%%%%%%%%%%%%%%",
"%%%%%%%%%%%%%%%%%%%%%%%%%%%%%%%%",
"%%%%%%%%%%%%%%%%%%%%%%%%%%%%%%%%",
"%%%%%%%%%%%%%%%%%%%%%%%%%%%%%%%%",
"%%%%%%%%%%%%%%%%%%%%%%%%%%%%%%%%",
"%%%%%%%%%%%%%%%%%%%%%%%%%%%%%%%%",
"%%%%%%%%%%%%%%%%%%%%%%%%%%%%%%%%",
"%%%%%%%%%%%%%%%%%%%%%%%%%%%%%%%%",
"%%%%%%{_:<#%%%%%%%%%{_:<#%%%%%%%",
"%%%%%%@[:_;}%%%%%%%%@[:_;}%%%%%%",
"%%%%%%,|@{12%%%%%%%%,|@{12%%%%%%",
"%%%%%%({3456%%%%%%%%({3456%%%%%%",
"%%%%%%7890ab%%%%%%%%7890ab%%%%%%",
"%%%%%%*cdefg%%%%%%%%*cdefg%%%%%%",
"%%%%%%%%%%%%%%%%%%%%%%%%%%%%%%%%",
"hi~~%%%%%%%%%%%%%%%%%%%%%%%%~=*j",
"k}l~%%%%%%%%%%%%%%%%%%%%%%%~l}km",
"n3*~%%%%%%%%%%%%%%%%%%%%%%%=opqr",
"stl%%%%%%%%%%%%%%%%%%%%%%%%lu1rv",
"wki--%%%%%%%%%%%%%%%%%%%%%%hxyzA"};
