/* XPM */
static char * ver_edge_xpm[] = {
"32 32 37 1",
" 	c None",
".	c #CBCBCB",
"+	c #CACACA",
"@	c #C8C8C8",
"#	c #C5C5C5",
"$	c #BEBEBE",
"%	c #BABABA",
"&	c #AEAEAE",
"*	c #929292",
"=	c #767676",
"-	c #5D5D5D",
";	c #464646",
">	c #CFCFCF",
",	c #DADADA",
"'	c #D2D2D2",
")	c #C3C3C3",
"!	c #DEDEDE",
"~	c #BFBFBF",
"{	c #CDCDCD",
"]	c #D1D1D1",
"^	c #969696",
"/	c #828282",
"(	c #C1C1C1",
"_	c #AAAAAA",
":	c #858585",
"<	c #626262",
"[	c #616161",
"}	c #AFAFAF",
"|	c #898989",
"1	c #666666",
"2	c #484848",
"3	c #343434",
"4	c #B4B4B4",
"5	c #8D8D8D",
"6	c #535353",
"7	c #747474",
"8	c #ACACAC",
".+@#$%%%%%%%%%%%%%%%%%%%%%%&*=-;",
".+@#$%%%%%%%%%%%%%%%%%%%%%%&*=-;",
".+@#$%%%%%%%%%%%%%%%%%%%%%%&*=-;",
".+@#$%%%%%%%%%%%%%%%%%%%%%%&*=-;",
".+@#$%%%%%%%%%%%%%%%%%%%%%%&*=-;",
".+@#$%%%%%%%%%%%%%%%%%%%%%%&*=-;",
".+@#$%$>,')%%%%%%%%%$>,')%%&*=-;",
".+@#$%.!,>~&%%%%%%%%.!,>~&%&*=-;",
".+@#$%{].$^/%%%%%%%%{].$^/%&*=-;",
".+@#$%($_:<[%%%%%%%%($_:<[%&*=-;",
".+@#$%}|123=%%%%%%%%}|123=%&*=-;",
".+@#$%456;78%%%%%%%%456;78%&*=-;",
".+@#$%%%%%%%%%%%%%%%%%%%%%%&*=-;",
".+@#$%%%%%%%%%%%%%%%%%%%%%%&*=-;",
".+@#$%%%%%%%%%%%%%%%%%%%%%%&*=-;",
".+@#$%%%%%%%%%%%%%%%%%%%%%%&*=-;",
".+@#$%%%%%%%%%%%%%%%%%%%%%%&*=-;",
".+@#$%%%%%%%%%%%%%%%%%%%%%%&*=-;",
".+@#$%%%%%%%%%%%%%%%%%%%%%%&*=-;",
".+@#$%%%%%%%%%%%%%%%%%%%%%%&*=-;",
".+@#$%$>,')%%%%%%%%%$>,')%%&*=-;",
".+@#$%.!,>~&%%%%%%%%.!,>~&%&*=-;",
".+@#$%{].$^/%%%%%%%%{].$^/%&*=-;",
".+@#$%($_:<[%%%%%%%%($_:<[%&*=-;",
".+@#$%}|123=%%%%%%%%}|123=%&*=-;",
".+@#$%456;78%%%%%%%%456;78%&*=-;",
".+@#$%%%%%%%%%%%%%%%%%%%%%%&*=-;",
".+@#$%%%%%%%%%%%%%%%%%%%%%%&*=-;",
".+@#$%%%%%%%%%%%%%%%%%%%%%%&*=-;",
".+@#$%%%%%%%%%%%%%%%%%%%%%%&*=-;",
".+@#$%%%%%%%%%%%%%%%%%%%%%%&*=-;",
".+@#$%%%%%%%%%%%%%%%%%%%%%%&*=-;"};
