/* XPM */
static char * inner_xpm[] = {
"32 32 19 1",
" 	c None",
".	c #FF0D0D",
"+	c #FF0C0C",
"@	c #FF0909",
"#	c #FF0808",
"$	c #FF0707",
"%	c #FF0606",
"&	c #FF0404",
"*	c #FF0505",
"=	c #FF0303",
"-	c #FF0202",
";	c #FF0101",
">	c #FF0000",
",	c #FF0B0B",
"'	c #FE0000",
")	c #FD0000",
"!	c #FC0000",
"~	c #FB0000",
"{	c #FA0000",
".+@#$%&&&***&*&==-;;;-;;;>>>;;>>",
",#$$*===-======--;;;;;;;>>>>>>>'",
"$**&=;;;;--------;;>>>;>>>>>>>>'",
"====;;;;;;;;;;;;;>>>>>>>>>>>>>')",
"--;;>>>>>>>>>>>>>>>>>>>>>>>>>>''",
";;;;>>>>>>>>>>>>>>>>>>>>>>>>>'''",
";;;>>>>>>>>>>>>>>>>>>>>>>>>>>'''",
";;;>>>>>>>>>>>>>>>>>>>>>>>>>>>')",
";;>>>>>>>>>>>>>>>>>>>>>>>>>>>>')",
";>>>>>>>>>>>>>>>>>>>>>>>>>>>>'))",
";;>>>>>>>>>>>>>>>>>>>>>>>>>>>'))",
";;>>>>>>>>>>>>>>>>>>>>>>>>>>''')",
";;>>>>>>>>>>>>>>>>>>>>>>>>>>>'')",
">>>>>>>>>>>>>>>>>>>>>>>>>>>>>'))",
";;>>>>>>>>>>>>>>>>>>>>>>>>>>>'))",
";;;>>>>>>>>>>>>>>>>>>>>>>>>>>'')",
"-;;;>>>>>>>>>>>>>>>>>>>>>>>>>'')",
"-;;;>>>>>>>>>>>>>>>>>>>>>>>>>')!",
"-;;;>>>>>>>>>>>>>>>>>>>>>>>>>')~",
";;;;>>>>>>>>>>>>>>>>>>>>>>>>>'')",
";;;;>>>>>>>>>>>>>>>>>>>>>>>>>>')",
";;;>>>>>>>>>>>>>>>>>>>>>>>>>>>'!",
";;>>>>>>>>>>>>>>>>>>>>>>>>>>>>')",
";>>>>>>>>>>>>>>>>>>>>>>>>>>>>>')",
">>>>>>>>>>>>>>>>>>>>>>>>>>>>>>'!",
">>>>>>>>>>>>>>>>>>>>>>>>>>>>>>)!",
">>>>>>>>>>>>>>>>>>>>>>>>>>>>>')!",
">>>>>>>>>>>>>>>>>>>>>>>>>>>>>')!",
">>>>>>>>>>>>>>>>>>>>>>>>>>>>')!~",
">>>>>>>>>>>>>>>>>>>>>>>>>>>')!!~",
"''>>>>>>>>>>>>>>>>>>>>>>>>')!~~~",
")'''''>>>>>>>>>>>>>>>>>>''!!!~{{"};
