/* XPM */
static char * miss_corner_xpm[] = {
"32 32 72 1",
" 	c None",
".	c #FF7F7F",
"+	c #FF5E5E",
"@	c #FF3D3D",
"#	c #FF2121",
"$	c #FF0A0A",
"%	c #FF0000",
"&	c #FF0404",
"*	c #FF0505",
"=	c #FF0303",
"-	c #FF0202",
";	c #FF0101",
">	c #F80000",
",	c #F30909",
"'	c #C80000",
")	c #A20000",
"!	c #B30505",
"~	c #D06464",
"{	c #FF6666",
"]	c #FF4848",
"^	c #FF2D2D",
"/	c #FF1616",
"(	c #FF0707",
"_	c #ED0101",
":	c #CA0000",
"<	c #CD5050",
"[	c #FF8282",
"}	c #FF3131",
"|	c #FF1E1E",
"1	c #FF0F0F",
"2	c #F90000",
"3	c #ED0202",
"4	c #D20404",
"5	c #DD4545",
"6	c #FF6C6C",
"7	c #FF2A2A",
"8	c #FF1C1C",
"9	c #FF1010",
"0	c #FD0000",
"a	c #EE0303",
"b	c #E12222",
"c	c #FF4A4A",
"d	c #FF0909",
"e	c #FF0606",
"f	c #FB1515",
"g	c #FF1B1B",
"h	c #FE0000",
"i	c #FC0000",
"j	c #FB0000",
"k	c #F50000",
"l	c #F60000",
"m	c #F00000",
"n	c #E10000",
"o	c #EF0000",
"p	c #D20000",
"q	c #E70000",
"r	c #E00000",
"s	c #C90000",
"t	c #AD0000",
"u	c #F01C1C",
"v	c #CE0000",
"w	c #AB0000",
"x	c #810000",
"y	c #E52121",
"z	c #F32F2F",
"A	c #FF3535",
"B	c #FF2727",
"C	c #F30000",
"D	c #DB0000",
"E	c #B70000",
"F	c #890000",
"G	c #540000",
".+@#$%%%&***&*&==-;;;-;;%%>,')!~",
"{]^/(%%%-======--;;;;;;;%%>_:)<[",
"]}|1&%%%;--------;;%%%;%%%234566",
"789(=%%%;;;;;;;;;%%%%%%%%%0abccc",
"1de=;%%%%%%%%%%%%%%%%%%%%%;fgggg",
"%%%%%%%%%%%%%%%%%%%%%%%%%%%%%%%%",
"%%%%%%%%%%%%%%%%%%%%%%%%%%%%%%%%",
"%%%%%%%%%%%%%%%%%%%%%%%%%%%%%%%%",
"%%%%%%%%%%%%%%%%%%%%%%%%%%%%%%%%",
"%%%%%%%%%%%%%%%%%%%%%%%%%%%%%h00",
";;%%%%%%%%%%%%%%%%%%%%%%%%%%%h0i",
";;%%%%%gggg%%%%%%%%%%%%%%%%%hhh0",
";;%%%%%%ggggggggg%%%%%%%%%%%%hh0",
"%%%%%%%gggggggggggggg%%%%%%%%h00",
";;%%%%%%%%%ggggggg%%g%%%%%%%%h00",
";;;%%%ggggg%%ggggggggggg%%%%%hh0",
"-;;;%%%%%ggggggggggggggg%%%%%hh0",
"-;;;%%%%%%%%%%%%gggggg%%%%%%%h0i",
"%%%%%%%%%%%%%%%%%%%%%%%%%%%%%h0j",
"%%%%%%%%%%%%%%%%%%%%%%%%%%%%%hh0",
"%%%%%%%%%%%%%%%%%%%%%%%%%%%%%%h0",
"%%%%%%%%%%%%%%%%%%%%%%%%%%%%%%hi",
"%%%%%%%%%%%%%%%%%%%%%%%%%%%%%%h0",
"%%%%%%%%%%g%%%%%%%%%%%%%%%%%%%%%",
"%%%%%%%%%%%%%%%%%%%%%%%%%%%%%%%%",
"%%%%%%%%%%%%%%%%%%%%%%%%%%%%%%%%",
"%%%%%%%%%%%%%%%%%%%%%%%%%%%%%%%%",
"k2ihh%%%%%%%%%%%%%%%%%%%%%%hi2lm",
"no>ih%%%%%%%%%%%%%%%%%%%%%%i>onp",
"pqlh;%%%%%%%%%%%%%%%%%%%%%%jmrst",
"'ul;;%%%%%%%%%%%%%%%%%%%%%%>qvwx",
"yzAB&%%%%%%%%%%%%%%%%%%%%%%CDEFG"};
