/* XPM */
static char * ver_edge_xpm[] = {
"32 32 11 1",
" 	c None",
".	c #FF3D3D",
"+	c #FF3C3C",
"@	c #FF3535",
"#	c #FF2727",
"$	c #FF0F0F",
"%	c #EE0000",
"&	c #C80000",
"*	c #A20000",
"=	c #7F0000",
"-	c #600000",
".+@#$$$$$$$$$$$$$$$$$$$$$$$%&*=-",
".+@#$$$$$$$$$$$$$$$$$$$$$$$%&*=-",
".+@#$$$$$$$$$$$$$$$$$$$$$$$%&*=-",
".+@#$$$$$$$$$$$$$$$$$$$$$$$%&*=-",
".+@#$$$$$$$$$$$$$$$$$$$$$$$%&*=-",
".+@#$$$$$$$$$$$$$$$$$$$$$$$%&*=-",
".+@#$$$$$$$$$$$$$$$$$$$$$$$%&*=-",
".+@#$$$$$$$$$$$$$$$$$$$$$$$%&*=-",
".+@#$$$$$$$$$$$$$$$$$$$$$$$%&*=-",
".+@#$$$$$$$$$$$$$$$$$$$$$$$%&*=-",
".+@#$$$$$$$$$$$$$$$$$$$$$$$%&*=-",
".+@#$$$$$$$$$$$$$$$$$$$$$$$%&*=-",
".+@#$$$$$$$$$$$$$$$$$$$$$$$%&*=-",
".+@#$$$$$$$$$$$$$$$$$$$$$$$%&*=-",
".+@#$$$$$$$$$$$$$$$$$$$$$$$%&*=-",
".+@#$$$$$$$$$$$$$$$$$$$$$$$%&*=-",
".+@#$$$$$$$$$$$$$$$$$$$$$$$%&*=-",
".+@#$$$$$$$$$$$$$$$$$$$$$$$%&*=-",
".+@#$$$$$$$$$$$$$$$$$$$$$$$%&*=-",
".+@#$$$$$$$$$$$$$$$$$$$$$$$%&*=-",
".+@#$$$$$$$$$$$$$$$$$$$$$$$%&*=-",
".+@#$$$$$$$$$$$$$$$$$$$$$$$%&*=-",
".+@#$$$$$$$$$$$$$$$$$$$$$$$%&*=-",
".+@#$$$$$$$$$$$$$$$$$$$$$$$%&*=-",
".+@#$$$$$$$$$$$$$$$$$$$$$$$%&*=-",
".+@#$$$$$$$$$$$$$$$$$$$$$$$%&*=-",
".+@#$$$$$$$$$$$$$$$$$$$$$$$%&*=-",
".+@#$$$$$$$$$$$$$$$$$$$$$$$%&*=-",
".+@#$$$$$$$$$$$$$$$$$$$$$$$%&*=-",
".+@#$$$$$$$$$$$$$$$$$$$$$$$%&*=-",
".+@#$$$$$$$$$$$$$$$$$$$$$$$%&*=-",
".+@#$$$$$$$$$$$$$$$$$$$$$$$%&*=-"};
