/* XPM */
static char * corner_xpm[] = {
"32 32 80 1",
" 	c None",
".	c #CCCCCC",
"+	c #D1D1D1",
"@	c #D2D2D2",
"#	c #CFCFCF",
"$	c #CACACA",
"%	c #C6C6C6",
"&	c #C3C3C3",
"*	c #B9B9B9",
"=	c #ACACAC",
"-	c #9C9C9C",
";	c #868686",
">	c #C5C5C5",
",	c #CECECE",
"'	c #CBCBCB",
")	c #C0C0C0",
"!	c #BABABA",
"~	c #ADADAD",
"{	c #6D6D6D",
"]	c #BBBBBB",
"^	c #C2C2C2",
"/	c #B5B5B5",
"(	c #AEAEAE",
"_	c #888888",
":	c #707070",
"<	c #585858",
"[	c #B0B0B0",
"}	c #B7B7B7",
"|	c #B4B4B4",
"1	c #ABABAB",
"2	c #A5A5A5",
"3	c #898989",
"4	c #727272",
"5	c #5B5B5B",
"6	c #464646",
"7	c #A4A4A4",
"8	c #A6A6A6",
"9	c #9F9F9F",
"0	c #959595",
"a	c #8D8D8D",
"b	c #848484",
"c	c #484848",
"d	c #363636",
"e	c #9E9E9E",
"f	c #9D9D9D",
"g	c #9A9A9A",
"h	c #939393",
"i	c #878787",
"j	c #7F7F7F",
"k	c #767676",
"l	c #636363",
"m	c #505050",
"n	c #3E3E3E",
"o	c #2F2F2F",
"p	c #989898",
"q	c #949494",
"r	c #8F8F8F",
"s	c #787878",
"t	c #686868",
"u	c #565656",
"v	c #2A2A2A",
"w	c #8A8A8A",
"x	c #818181",
"y	c #757575",
"z	c #5A5A5A",
"A	c #525252",
"B	c #4B4B4B",
"C	c #3D3D3D",
"D	c #313131",
"E	c #272727",
"F	c #202020",
"G	c #7A7A7A",
"H	c #6A6A6A",
"I	c #3C3C3C",
"J	c #353535",
"K	c #252525",
"L	c #676767",
"M	c #404040",
"N	c #222222",
"O	c #3A3A3A",
".+@#$%%%%%%%%%%%%%%%%%%%%%%&*=-;",
">.,'>))))))))))))))))))))))!~-;{",
"]^>&]//////////////////////(-_:<",
"[/}|12222222222222222222222-3456",
"78290aaaaaaaaaaaaaaaaaaaaaab:5cd",
"efghijjjjjjjjjjjjjjjjjjjjjjklmno",
"efghijjjjjjjjjjjjjjjjjjjjjjklmno",
"efghijjjjjjjjjjjjjjjjjjjjjjklmno",
"efghijjjjjjjjjjjjjjjjjjjjjjklmno",
"efghijjjjjjjjjjjjjjjjjjjjjjklmno",
"efghijjjjjjjjjjjjjjjjjjjjjjklmno",
"efghijjjjjjjjjjjjjjjjjjjjjjklmno",
"efghijjjjjjjjjjjjjjjjjjjjjjklmno",
"efghijjjjjjjjjjjjjjjjjjjjjjklmno",
"efghijjjjjjjjjjjjjjjjjjjjjjklmno",
"efghijjjjjjjjjjjjjjjjjjjjjjklmno",
"efghijjjjjjjjjjjjjjjjjjjjjjklmno",
"efghijjjjjjjjjjjjjjjjjjjjjjklmno",
"efghijjjjjjjjjjjjjjjjjjjjjjklmno",
"efghijjjjjjjjjjjjjjjjjjjjjjklmno",
"efghijjjjjjjjjjjjjjjjjjjjjjklmno",
"efghijjjjjjjjjjjjjjjjjjjjjjklmno",
"efghijjjjjjjjjjjjjjjjjjjjjjklmno",
"efghijjjjjjjjjjjjjjjjjjjjjjklmno",
"efghijjjjjjjjjjjjjjjjjjjjjjklmno",
"efghijjjjjjjjjjjjjjjjjjjjjjklmno",
"efghijjjjjjjjjjjjjjjjjjjjjjklmno",
"pqr;s::::::::::::::::::::::tu6dv",
"wxytzAAAAAAAAAAAAAAAAAAAAAABCDEF",
"GH5BIJJJJJJJJJJJJJJJJJJJJJJoKFFF",
"LAMoNFFFFFFFFFFFFFFFFFFFFFFFFFFF",
"AOKFFFFFFFFFFFFFFFFFFFFFFFFFFFFF"};
