/* XPM */
static char * miss_corner_xpm[] = {
"32 32 52 1",
" 	c None",
".	c #BFBFBF",
"+	c #AEAEAE",
"@	c #9E9E9E",
"#	c #909090",
"$	c #848484",
"%	c #7F7F7F",
"&	c #767676",
"*	c #636363",
"=	c #505050",
"-	c #3E3E3E",
";	c #2F2F2F",
">	c #B2B2B2",
",	c #A3A3A3",
"'	c #969696",
")	c #8A8A8A",
"!	c #838383",
"~	c #C6C6C6",
"{	c #989898",
"]	c #8E8E8E",
"^	c #878787",
"/	c #818181",
"(	c #C0C0C0",
"_	c #949494",
":	c #8D8D8D",
"<	c #B5B5B5",
"[	c #828282",
"}	c #808080",
"|	c #A5A5A5",
"1	c #7A7A7A",
"2	c #7C7C7C",
"3	c #7E7E7E",
"4	c #7B7B7B",
"5	c #787878",
"6	c #707070",
"7	c #777777",
"8	c #696969",
"9	c #737373",
"0	c #7D7D7D",
"a	c #646464",
"b	c #565656",
"c	c #727272",
"d	c #676767",
"e	c #555555",
"f	c #404040",
"g	c #606060",
"h	c #717171",
"i	c #797979",
"j	c #6D6D6D",
"k	c #5B5B5B",
"l	c #444444",
"m	c #2A2A2A",
".+@#$%%%%%%%%%%%%%%%%%%%%%%&*=-;",
">,')!%%%%%%%%%%%%%%%%%%%%%%&*=-~",
",{]^/%%%%%%%%%%%%%%%%%%%%%%&*=((",
"_:^!/%%%%%%%%%%%%%%%%%%%%%%&*<<<",
"^$[/}%%%%%%%%%%%%%%%%%%%%%%&||||",
"%%%%%%%%%%%%%%%%%%%%%%%%%%%:::::",
"%%%%%%%%%%%%%%%%%%%%%%%%%%%%%%%%",
"%%%%%%%%%%%%%%%%%%%%%%%%%%%%%%%%",
"%%%%%%%%%%%%%%%%%%%%%%%%%%%%%%%%",
"%%%%%%%%%%%%%%%%%%%%%%%%%%%%%%%%",
"%%%%%%%%%%%%%%%%%%%%%%%%%%%%%%%%",
"%%%%%%%%%%%%%%%%%%%%%%%%%%%%%%%%",
"%%%%%%%%%%%%%%%%%%%%%%%%%%%%%%%%",
"%%%%%%%%%%%%%%%%%%%%%%%%%%%%%%%%",
"%%%%%%%%%%%%%%%%%%%%%%%%%%%%%%%%",
"%%%%%%%%%%%%%%%%%%%%%%%%%%%%%%%%",
"%%%%%%%%%%%%%%%%%%%%%%%%%%%%%%%%",
"%%%%%%%%%%%%%%%%%%%%%%%%%%%%%%%%",
"%%%%%%%%%%%%%%%%%%%%%%%%%%%%%%%%",
"%%%%%%%%%%%%%%%%%%%%%%%%%%%%%%%%",
"%%%%%%%%%%%%%%%%%%%%%%%%%%%%%%%%",
"%%%%%%%%%%%%%%%%%%%%%%%%%%%%%%%%",
"%%%%%%%%%%%%%%%%%%%%%%%%%%%%%%%%",
"%%%%%%%%%%%%%%%%%%%%%%%%%%%%%%%%",
"%%%%%%%%%%%%%%%%%%%%%%%%%%%%%%%%",
"%%%%%%%%%%%%%%%%%%%%%%%%%%%%%%%%",
"%%%%%%%%%%%%%%%%%%%%%%%%%%%%%%%%",
"123%%%%%%%%%%%%%%%%%%%%%%%%%3245",
"6723%%%%%%%%%%%%%%%%%%%%%%%32768",
"894%}%%%%%%%%%%%%%%%%%%%%%%056ab",
"ac4}}%%%%%%%%%%%%%%%%%%%%%%29def",
"gh2[/%%%%%%%%%%%%%%%%%%%%%%ijklm"};
