/* XPM */
static char * ver_edge_xpm[] = {
"32 32 12 1",
" 	c None",
".	c #9E9E9E",
"+	c #9D9D9D",
"@	c #9A9A9A",
"#	c #939393",
"$	c #878787",
"%	c #7F7F7F",
"&	c #767676",
"*	c #636363",
"=	c #505050",
"-	c #3E3E3E",
";	c #2F2F2F",
".+@#$%%%%%%%%%%%%%%%%%%%%%%&*=-;",
".+@#$%%%%%%%%%%%%%%%%%%%%%%&*=-;",
".+@#$%%%%%%%%%%%%%%%%%%%%%%&*=-;",
".+@#$%%%%%%%%%%%%%%%%%%%%%%&*=-;",
".+@#$%%%%%%%%%%%%%%%%%%%%%%&*=-;",
".+@#$%%%%%%%%%%%%%%%%%%%%%%&*=-;",
".+@#$%%%%%%%%%%%%%%%%%%%%%%&*=-;",
".+@#$%%%%%%%%%%%%%%%%%%%%%%&*=-;",
".+@#$%%%%%%%%%%%%%%%%%%%%%%&*=-;",
".+@#$%%%%%%%%%%%%%%%%%%%%%%&*=-;",
".+@#$%%%%%%%%%%%%%%%%%%%%%%&*=-;",
".+@#$%%%%%%%%%%%%%%%%%%%%%%&*=-;",
".+@#$%%%%%%%%%%%%%%%%%%%%%%&*=-;",
".+@#$%%%%%%%%%%%%%%%%%%%%%%&*=-;",
".+@#$%%%%%%%%%%%%%%%%%%%%%%&*=-;",
".+@#$%%%%%%%%%%%%%%%%%%%%%%&*=-;",
".+@#$%%%%%%%%%%%%%%%%%%%%%%&*=-;",
".+@#$%%%%%%%%%%%%%%%%%%%%%%&*=-;",
".+@#$%%%%%%%%%%%%%%%%%%%%%%&*=-;",
".+@#$%%%%%%%%%%%%%%%%%%%%%%&*=-;",
".+@#$%%%%%%%%%%%%%%%%%%%%%%&*=-;",
".+@#$%%%%%%%%%%%%%%%%%%%%%%&*=-;",
".+@#$%%%%%%%%%%%%%%%%%%%%%%&*=-;",
".+@#$%%%%%%%%%%%%%%%%%%%%%%&*=-;",
".+@#$%%%%%%%%%%%%%%%%%%%%%%&*=-;",
".+@#$%%%%%%%%%%%%%%%%%%%%%%&*=-;",
".+@#$%%%%%%%%%%%%%%%%%%%%%%&*=-;",
".+@#$%%%%%%%%%%%%%%%%%%%%%%&*=-;",
".+@#$%%%%%%%%%%%%%%%%%%%%%%&*=-;",
".+@#$%%%%%%%%%%%%%%%%%%%%%%&*=-;",
".+@#$%%%%%%%%%%%%%%%%%%%%%%&*=-;",
".+@#$%%%%%%%%%%%%%%%%%%%%%%&*=-;"};
